<?xml version="1.0" encoding="utf-8"?>
<!-- Generator: Adobe Illustrator 16.0.3, SVG Export Plug-In . SVG Version: 6.00 Build 0)  -->
<!DOCTYPE svg PUBLIC "-//W3C//DTD SVG 1.1//EN" "http://www.w3.org/Graphics/SVG/1.1/DTD/svg11.dtd">
<svg version="1.1" id="Layer_1" xmlns="http://www.w3.org/2000/svg" xmlns:xlink="http://www.w3.org/1999/xlink" x="0px" y="0px"
	 width="100px" height="100px" viewBox="0 0 100 100" enable-background="new 0 0 100 100" xml:space="preserve">
<path fill="#FFFFFF" d="M10.125,37.563c3.063,0,4.375,1.938,4.375,9.5s0,24.742,0,24.742h78.625v21.508H85.75v-9.375H14.313v9.375
	H6.5c0,0,0-47.875,0-51.125S10.125,37.563,10.125,37.563z"/>
<path fill="#98BED8" d="M42.938,71.805h50.188c0,0,0.875-4.941-1.625-8.19c-2.5-3.25-7.625-3-7.625-3H42.938V71.805z"/>
<path fill="#C7D7E2" d="M15.875,59.425c0,1.75,6.313,12.375,14.875,12.375s13.752,0.562,3.19-9.815
	C23.377,51.609,15.875,59.425,15.875,59.425z"/>
<path fill="#444B54" d="M10.4,35.6C7.438,35.6,5,38.038,5,41v54h10.8v-9h68.4v9H95V71.6v-1.8V68c0-4.941-4.059-9-9-9H42.8
	c-0.993,0-1.8,0.807-1.8,1.8v9h-0.018c-0.011-0.086-0.027-0.171-0.05-0.253c0,0-2.296-9.135-9.783-12.67
	c-1.869-0.883-3.805-1.305-5.66-1.438c-4.406-0.32-8.239,0.938-9.689,1.49V41C15.8,38.038,13.362,35.6,10.4,35.6z M10.4,39.2
	c0.998,0,1.8,0.802,1.8,1.8v32.398H14h16.144c0.737,0.039,1.457,0.039,2.152,0H42.8H91.4v18H87.8v-9H12.2v9H8.6V41
	C8.6,40.002,9.402,39.2,10.4,39.2z M25.247,59.102c1.486,0.084,2.994,0.383,4.367,1.03c4.382,2.069,6.322,6.618,7.104,8.688
	c-1.207,0.386-3.297,0.955-5.678,0.979h-0.773c-1.565-0.067-3.229-0.397-4.841-1.206c-0.012-0.007-0.025-0.012-0.039-0.019
	c-4.376-2.067-6.303-6.468-7.095-8.521C19.753,59.591,21.972,58.916,25.247,59.102z M44.6,62.6H86c2.979,0,5.4,2.422,5.4,5.4v1.8
	H44.6V62.6z M15.8,63.557c1.044,2.008,2.607,4.346,4.908,6.244H15.8V63.557z"/>
</svg>
